/* XPM */
static char *_24b04d02c064ece883d3f9cd58b4ba0kxFfYjwN6MSH8Q1W[] = {
/* columns rows colors chars-per-pixel */
"64 64 2 1 ",
"  c #F26F9B",
". c #99D9EA",
/* pixels */
"................................................................",
"................................................................",
"................................................................",
"................................................................",
"................................................................",
".............................. .................................",
".............................. .................................",
".............................   ................................",
".............................   ................................",
"............................    ................................",
"............................     ...............................",
"...........................      ...............................",
"...........................       ..............................",
"..........................        ..............................",
"..........................        ..............................",
"..........................         .............................",
".........................          .............................",
".........................          .............................",
"........................            ............................",
"........................            ............................",
".......                                                   ......",
"........                                                 .......",
".........                                              .........",
"..........                                            ..........",
"............                                         ...........",
".............                                      .............",
"..............                                    ..............",
"...............                                 ................",
"................                               .................",
".................                             ..................",
"...................                         ....................",
"...................                        .....................",
"..................                       .......................",
"..................                       .......................",
".................                        .......................",
".................                         ......................",
"................                          ......................",
"................                           .....................",
"...............                            .....................",
"...............                            .....................",
"...............                             ....................",
"..............               ...            ....................",
"..............             ......           ....................",
".............             ........           ...................",
".............            ..........          ...................",
"............           .............         ...................",
"............          ...............         ..................",
"............        ...................       ..................",
"...........        .....................      ..................",
"...........       .......................      .................",
"..........      ..........................     .................",
"..........     ............................     ................",
".........    ...............................    ................",
".........   ..................................  ................",
"........   ....................................  ...............",
"........ ....................................... ...............",
"................................................................",
"................................................................",
"................................................................",
"................................................................",
"................................................................",
"................................................................",
"................................................................",
"................................................................"
};
