/* XPM */
static char *exit1668600432[] = {
/* columns rows colors chars-per-pixel */
"51 51 2 1 ",
"  c black",
". c white",
/* pixels */
"...................................................",
"...................................................",
"...................................................",
"...................................................",
"...................................................",
"......                                     ........",
"...... ............................................",
"...... ............................................",
"...... ............................................",
"...... ............................................",
"...... ............................................",
"...... ............................................",
"...... ............................................",
"...... ............................................",
"...... ............................................",
"...... ............................................",
"...... ............................................",
"...... ............................................",
"...... ............................................",
"...... ............................................",
"...... ............................................",
"...... ............................................",
"...... ............................................",
"...... ............................................",
"......                             ................",
"...... ............................................",
"...... ............................................",
"...... ............................................",
"...... ............................................",
"...... ............................................",
"...... ............................................",
"...... ............................................",
"...... ............................................",
"...... ............................................",
"...... ............................................",
"...... ............................................",
"...... ............................................",
"...... ............................................",
"...... ............................................",
"...... ............................................",
"...... ............................................",
"...... ............................................",
"...... ............................................",
"...... ............................................",
"...... ............................................",
"...... ............................................",
"......                                       ......",
"...................................................",
"...................................................",
"...................................................",
"..................................................."
};
