/* XPM */
static char *_2bf5b11b6f34d7a9f3427fc38541febj7NM1HyxmDinbX5h[] = {
/* columns rows colors chars-per-pixel */
"64 64 4 1 ",
"  c black",
". c #FF7F27",
"X c #1EE656",
"o c #99D9EA",
/* pixels */
"ooooooooooooooooooooooooooooooooXXooooooooooooXXXooooooooooooooo",
"ooooooooooooooooooooooooooooooooXXoooooooooXXXXXXooooooooooooooo",
"ooooooooooooooooooooooXXXXXXXXoXXXoooooooXXXXXXXXooooooooooooooo",
"ooooooooooooooooooooooXXXXXXXXXXXXXooooXXXXXXXXXXooooooooooooooo",
"oooooooooooooooooooooooXXXXXXXXXXXXXXXXXXXXXXXXXXooooooooooooooo",
"oooooooooooooooooooooooXXXXXXXXXXXXXXXXXXXXXXXXXoooooooooooooooo",
"oooooooooooooooooooooooXXXXXXXXXXXXXXXXXXXXXXXXooooooooooooooooo",
"oooooooooooooooooooooooXXXXXXXXXXXXXXXXXXXXXXXXXXooooooooooooooo",
"ooooooooooooooooooXXXXXXXXXXXXXXXXXXXXXXXXXXXXXXXXXooooooooooooo",
"oooooooooooooXXXXXXXXXXXXXXXXXXXXXXXXXXXXXXXXXXXXXXXoooooooooooo",
"ooooooooooooXXXXXXXXXXXXXXXXXXXXXXXXXXXXXXXXXXXXXXXXXXoooooooooo",
"oooooooooooooXXXXXXXXXXXXXXXXXXXXXXXXXXXXXXXXXXXXXXXXXXXXooooooo",
"ooooooooooooooXXXXXXXXXXXXXXXXXXXXXXXXXXXXXXXXXXXXXXXXXXXXXXoooo",
"oooooooooooooooXXXXXXXXXXXXXXXXXXXXXXXXXXXXXXXXXXXXXXXXXXXXXXooo",
"oooooooooooooooXXXXXXXXXXXXXXXXXXXXXXXXXXXXXXXXXXXXXXXXXXXXXXXoo",
"oooooooooooooooXXXXXXXXXXXXXXXXXXXXXXXXXXXXXXXXXXXXXXXXXXXXXXXXo",
"oooooooooooooooXXXXXXXXXXXXX.......XXXXXXXXXXXXXXXXXXXXXXXXXXXXo",
"ooooooooooooXXXXXXXXXXXXXX...........XXXXXXXXXXXXXXXXXXXXXXXXXXo",
"ooooooooooooXXXXXXXXXXXX...............XXXXXXXXXXXXXXXXXXXXXXXXo",
"oooooooooooooXXXXXXXXXX.................XXXXXXXXXXXXXXXXXXXXXooo",
"ooooooooooooooXXXXXXXX...................XXXXXXXXXXXXXXXXXXXoooo",
"oooooooooooooooXXXXXX.....................XXXXXXXXXXXXXXXXoooooo",
"ooooooooooooooooXXXX..................... .XXXXXXXXXXXXXoooooooo",
"oooooooooooooooooXXX...................  ..XXXXXXXXXXXXXoooooooo",
"ooooooooooooooooooX .................  .....XXXXXXXXXXXXXXoooooo",
"ooooooooooooooooooo. ..............  .......XXXXXXXXXXXXXXoooooo",
"oooooooooooooooooo...  ........... ..........XXXXXXXXXXXXXoooooo",
"oooooooooooooooooo.....  ........ ...........XXXXXXXXXXXXXoooooo",
"ooooooooooooooooo....... ......  .............XXXXXXXXXXoooooooo",
"ooooooooooooooooo........  ..  ...............XXXXXXXXoooooooooo",
"oooooooooooooooo...........   .................XXXXXoooooooooooo",
"oooooooooooooooo............ ..................XXXoooooooooooooo",
"oooooooooooooooo............  .................XXXoooooooooooooo",
"oooooooooooooooo...........  .  ...............XXooooooooooooooo",
"oooooooooooooooo..........  .... ..............ooooooooooooooooo",
"ooooooooooooooo..........  ...... ..............oooooooooooooooo",
"ooooooooooooooo........  .........  ............oooooooooooooooo",
"ooooooooooooooo....... .............   .........oooooooooooooooo",
"ooooooooooooooo....   .................  .......oooooooooooooooo",
"ooooooooooooooo..  .....................  ......oooooooooooooooo",
"ooooooooooooooo  .........................   ...oooooooooooooooo",
"ooooooooooooooo ............................   .oooooooooooooooo",
"ooooooooooooooo. .............................  oooooooooooooooo",
"ooooooooooooooo..  ...........................  oooooooooooooooo",
"ooooooooooooooo....  ......................   ..oooooooooooooooo",
"ooooooooooooooo...... ....................  ....oooooooooooooooo",
"oooooooooooooooo...... ................... ....ooooooooooooooooo",
"oooooooooooooooo.......  ................ .....ooooooooooooooooo",
"oooooooooooooooo.........  ............  ......ooooooooooooooooo",
"oooooooooooooooo...........  ........  ........ooooooooooooooooo",
"oooooooooooooooo............  ...... ..........ooooooooooooooooo",
"ooooooooooooooooo............. .... ..........oooooooooooooooooo",
"ooooooooooooooooo..............  .  ..........oooooooooooooooooo",
"oooooooooooooooooo..............  ...........ooooooooooooooooooo",
"oooooooooooooooooo............... ...........ooooooooooooooooooo",
"ooooooooooooooooooo.............  ..........oooooooooooooooooooo",
"ooooooooooooooooooo............  . .........oooooooooooooooooooo",
"oooooooooooooooooooo..........  ..  .......ooooooooooooooooooooo",
"oooooooooooooooooooo.........  .... .......ooooooooooooooooooooo",
"ooooooooooooooooooooo.......  ...... .....oooooooooooooooooooooo",
"oooooooooooooooooooooo.....  .......  ...ooooooooooooooooooooooo",
"ooooooooooooooooooooooo...  .........  .oooooooooooooooooooooooo",
"oooooooooooooooooooooooo.. ........... ooooooooooooooooooooooooo",
"oooooooooooooooooooooooooo...........ooooooooooooooooooooooooooo"
};
