/* XPM */
static char *eecc46966ead45529b258822c2d92238zEbZcSzNf2xVQrLe[] = {
/* columns rows colors chars-per-pixel */
"64 64 2 1 ",
"  c #FFF200",
". c #99D9EA",
/* pixels */
"................................................................",
"................................................................",
"............................................................. ..",
"............................................................  ..",
".....................       ................................  ..",
"..................   .......   ............................ . ..",
"................. ............. .......................... .. ..",
"...............  ...............  ........................ .. ..",
".............. ................... ...................... ... ..",
"............. ..................... .................... .... ..",
"............ ....................... ................... .... ..",
"........... ......................... ................. ..... ..",
"........... ......................... ................ ...... ..",
".......... ........................... ............... ...... ..",
"......... ............................. ............. ....... ..",
"......... ............................. ............ ........ ..",
"........ .....   ....................... ........... ........ ..",
"........ ....     ...................... .......... ......... ..",
"....... .....     ....................... ........ .......... ..",
"....... .....     ....................... ........ .......... ..",
"....... ......   ........................ ....... ........... ..",
"...... ................................... ..... ............ ..",
"...... ................................... ..... ............ ..",
"...... ................................... .... ............. ..",
"...... ................................... ... .............. ..",
"..... ..................................... .. .............. ..",
"..... ..................................... . ............... ..",
"..... .....................................  ................ ..",
"..... .....................................  ................ ..",
"..... ..................................... ................. ..",
"..... .....................................  ................ ..",
"..... .....................................  ................ ..",
"..... ..................................... . ............... ..",
"..... ..................................... . ............... ..",
"..... ..................................... .. .............. ..",
"..... ..................................... .. .............. ..",
"..... ..................................... ... ............. ..",
".....         ............................. .... ............ ..",
"...... ................................... ..... ............ ..",
"...... ................................... ...... ........... ..",
"...... ................................... ...... ........... ..",
"...... ................................... ....... .......... ..",
"....... ................................. ......... ......... ..",
"....... ................................. ......... ......... ..",
"....... ................................. .......... ........ ..",
"........ ............................... ........... ........ ..",
"........ ............................... ............ ....... ..",
"......... ............................. ............. ....... ..",
"......... ............................. .............. ...... ..",
".......... ........................... ................ ..... ..",
"........... ......................... ................. ..... ..",
"........... ......................... .................. .... ..",
"............ ....................... ................... .... ..",
"............. ..................... ..................... ... ..",
".............. ................... ....................... .. ..",
"...............  ...............  ........................ .. ..",
"................. ............. ........................... . ..",
"..................   .......   ............................ . ..",
".....................       ................................  ..",
"............................................................  ..",
"............................................................. ..",
"................................................................",
"................................................................",
"................................................................"
};
