/* XPM */
static char *_975ff112711496db208c1d3c4a50eb8dTGIi1lXNSCx2x9o[] = {
/* columns rows colors chars-per-pixel */
"64 64 2 1 ",
"  c #0C6624",
". c #99D9EA",
/* pixels */
"......  ...... ....... ...... ...... .. ............  .....  ...",
"...... ...... ....... ........ ..... ... ...........  ..... ....",
"..... ....... ...... ......... ....  ....  ..........  ..... ...",
"..... ...... ....... .......... ... ....... .......... ..... ...",
".... ....... ...... ........... ... ........ ......... ...... ..",
"... ....... ...... ............ ... ......... ....... ....... ..",
"... ....... ..... ............. .. ........... ...... ........ .",
"... ...... ..... ............. ... ........... ..... ......... .",
"... ...... ..... ............. ... ............ .... ......... .",
".... ..... .....  ............ ... ............ .... .......... ",
"..... .... ...... ........... ..... ........... ... ........... ",
"..... ..... ...... .......... ..... ........... ... ............",
"...... .... ...... .......... ..... ........... ... ............",
"....... ... ....... ......... ..... ........... .. .............",
"........ ... ....... ........ ......  ......... .. .............",
"........ .... ...... ....... ........ ......... .. ............ ",
"........ ..... ...... ...... ......... ....... ... ............ ",
"......... .... ....... ..... ........ ....... .... ........... .",
"......... ..... ....... .... ........ ....... .... ........... .",
"......... ..... ........ ... ....... ....... ...... ......... ..",
"......... ...... ....... ... ....... ....... ...... ......... ..",
"......... ...... ........ ... ...... ...... ........ ........ ..",
"........ ....... ........ ... ......  .... ......... ....... ...",
"........ ....... ......... ... ...... ... ........... ...... ...",
"....... ........ ......... ....  .... ... ............ ..... ...",
"....... ......... ........ ...... ... .. .............. ... ....",
"....... ......... ........ ...... ... .. .............. ... ....",
"...... .......... ....... ........ .. ..  .............. . .....",
"...... ......... ........ ........ ... .. .............. . .....",
"...... ......... ....... .......... .. ... ............. . .....",
"...... ......... ....... .......... .. ... ............. .. ....",
"...... ......... ....... ........... . ... ............ ... ....",
"...... ......... ...... ............ .. .. ............ ... ....",
"....... ........ ...... ............ .. .. ........... ..... ...",
"....... ........ ...... ............ .. . ............ .... ....",
"....... ........ ..... ............. .. . ........... ..... ....",
"....... ........ ..... ............ ... . ........... ..... ....",
"........ ....... ..... ............ ... . .......... ..... .....",
"........ ....... ..... ........... ...  . .......... ..... .....",
"......... ...... ..... ........... ... .. .......... ..... .....",
"......... ...... ..... ........... ... .. .......... ..... .....",
"......... ...... ..... ........... .. ... ......... ...... .....",
"......... ...... ..... .......... ... ... ......... ...... .....",
"......... ....... ..... ......... ... ... ......... ...... .....",
"........ ........ ..... ......... ... .... ......... ...... ....",
"........ ........ ...... ....... .... .... ......... ...... ....",
"........ ........ ....... ...... .... .... ......... ...... ....",
"........ ........ ....... ...... .... .... ......... ....... ...",
"........ ........ ........ ..... .... .... ......... ....... ...",
"........ ........ ......... .... .... .... ......... ....... ...",
"........ ........ ......... .... .... .... ......... ....... ...",
".........  ...... ......... .... .... .... ......... ....... ...",
".......... ...... ......... ..... ... .... ......... ....... ...",
".......... ...... ........ ...... ... .... ........ ........ ...",
".......... ..... ......... ...... ... .... ........ ........ ...",
".......... ..... ........ ....... ..  .... ........ ........ ...",
".......... ..... ........ ........ .  .... ........ ........ ...",
"......... ...... ....... ........ ... ... ........ ......... ...",
"........ ....... ...... ......... ... ... ........ ......... ...",
"........ ....... ...... ......... .... .. ........ ......... ...",
"........ ....... ...... ......... .... .. ........ ......... ...",
"........  ...... ...... ......... .... . ......... ........ ....",
"....................... ......... .... . ......... ........ ....",
"....................... ..........  .. . ......... ....... ....."
};
